<?xml version="1.0" encoding="UTF-8" standalone="no"?>
<svg
   xmlns:dc="http://purl.org/dc/elements/1.1/"
   xmlns:cc="http://creativecommons.org/ns#"
   xmlns:rdf="http://www.w3.org/1999/02/22-rdf-syntax-ns#"
   xmlns:svg="http://www.w3.org/2000/svg"
   xmlns="http://www.w3.org/2000/svg"
   viewBox="0 0 162.50667 51.240002"
   height="51.240002"
   width="162.50667"
   xml:space="preserve"
   id="svg3732"
   version="1.1"><metadata
     id="metadata3738"><rdf:RDF><cc:Work
         rdf:about=""><dc:format>image/svg+xml</dc:format><dc:type
           rdf:resource="http://purl.org/dc/dcmitype/StillImage" /><dc:title></dc:title></cc:Work></rdf:RDF></metadata><defs
     id="defs3736" /><g
     transform="matrix(1.3333333,0,0,-1.3333333,0,51.24)"
     id="g3740"><g
       transform="scale(0.1)"
       id="g3742"><path
         id="path3744"
         style="fill:#231f20;fill-opacity:1;fill-rule:nonzero;stroke:none"
         d="m 99.8867,314.449 c -2.0898,2.531 -4.8437,4.176 -8.0312,4.176 -1.4297,0 -2.8555,-0.547 -4.0703,-1.539 -1.1016,-0.879 -1.8672,-2.203 -1.8672,-3.738 0,-1.321 0.5468,-2.535 1.4258,-3.524 0.9921,-0.984 2.3164,-1.535 3.6328,-1.535 1.3203,0 2.4179,0.551 3.4101,1.535 0.8828,0.879 1.4297,1.981 1.4297,3.192 v 0.769 l 3.5195,-2.855 c -0.332,-1.762 -1.207,-3.414 -2.5273,-4.739 -1.4336,-1.316 -3.082,-2.082 -4.8398,-2.082 -0.3321,0 -0.7735,0 -1.211,0 0.3281,-0.664 0.4375,-1.437 0.4375,-2.312 0,-1.543 -0.5508,-3.078 -1.5351,-4.399 -0.9922,-1.324 -2.3164,-2.421 -3.6329,-2.972 l -3.6289,2.859 c 2.6368,0.328 4.5079,2.645 4.5079,4.953 0,2.754 -2.3125,4.946 -5.1719,4.946 -1.4297,0 -2.6367,-0.653 -3.5156,-1.758 -0.8829,-1.098 -1.3243,-2.528 -1.3243,-3.852 0,-2.855 1.5391,-5.5 4.0664,-7.367 2.4297,-1.766 5.3985,-2.859 8.1446,-2.859 3.4101,0 6.3828,1.32 9.0234,3.523 l -2.6406,2.082 c 0.2148,1.985 1.4258,3.527 3.4101,4.18 l 2.5276,-2.09 c 1.097,2.09 1.758,4.187 1.758,6.711 0,3.086 -1.207,6.168 -3.2973,8.695 z m -39.164,-17.496 c -2.75,0 -4.6172,-2.308 -4.6172,-5.058 0,-2.641 2.1992,-4.836 4.8437,-4.836 1.2031,0 2.4141,0.324 3.625,1.535 v -4.617 c -1.3164,-0.547 -2.6406,-0.993 -3.8515,-0.993 -2.9688,0 -5.2774,0.879 -6.8204,3.301 -1.4257,-2.308 -3.7343,-3.301 -6.7109,-3.301 -1.3164,0 -2.6367,0.329 -3.957,0.993 v 4.617 c 1.2109,-1.098 2.4219,-1.535 3.6328,-1.535 2.6406,0 4.8359,2.195 4.8359,4.836 0,2.75 -1.8672,5.058 -4.6172,5.058 -2.5312,0 -4.1796,-1.211 -5.3906,-2.969 -0.9922,-1.648 -1.543,-3.851 -1.543,-6.16 0,-3.297 1.1016,-6.269 3.1915,-8.469 1.9804,-2.312 4.621,-3.957 7.8085,-4.511 v 3.301 c 0.879,0.441 1.8711,0.773 2.75,0.773 0.9922,0 1.9805,-0.332 2.754,-0.773 v -3.301 c 3.1875,0.554 5.9375,2.199 7.9179,4.398 1.9805,2.313 3.1914,5.285 3.1914,8.582 0,4.844 -1.9804,9.129 -7.0429,9.129 z m -31.0196,8.473 c -0.8789,1.105 -2.0898,1.758 -3.5195,1.758 -2.8633,0 -5.1719,-2.192 -5.1719,-4.946 0,-2.308 1.8711,-4.625 4.5117,-4.953 l -3.6328,-2.859 c -1.3203,0.551 -2.6406,1.648 -3.6289,2.972 -0.9922,1.426 -1.5429,2.856 -1.5429,4.399 0,0.875 0.1132,1.648 0.4453,2.312 -0.4453,0 -0.7735,0 -1.211,0 -1.6523,0 -3.3008,0.766 -4.7304,2.082 -1.32036,1.325 -2.31254,2.977 -2.64457,4.739 l 3.52347,2.855 c -0.1094,-1.426 0.332,-2.75 1.2109,-3.738 0.9883,-1.102 2.3086,-1.758 3.625,-1.758 1.3242,0 2.5352,0.551 3.5273,1.535 0.9844,0.879 1.5391,2.203 1.5391,3.524 0,1.429 -0.6601,2.746 -1.8711,3.738 -1.0976,0.992 -2.6406,1.539 -4.0742,1.539 -3.0742,0 -5.9414,-1.645 -8.02735,-4.289 -2.08984,-2.414 -3.30078,-5.609 -3.30078,-8.582 0,-2.524 0.66016,-4.621 1.75781,-6.816 l 2.53516,2.195 c 1.86716,-0.653 3.07816,-2.195 3.41016,-4.18 l -2.64454,-2.082 c 2.53124,-2.203 5.61324,-3.523 9.02344,-3.523 2.7461,0 5.7188,1.093 8.1406,2.859 2.5313,1.867 4.1797,4.512 4.1797,7.367 0,1.324 -0.5508,2.754 -1.4297,3.852 z m 74.6949,-15.731 -2.867,2.309 c -3.4021,-3.082 -7.8044,-4.945 -12.531,-4.945 -4.8437,0 -9.1328,1.757 -12.3242,5.058 -3.082,3.188 -4.8438,7.481 -4.8438,12.211 0,3.301 0.8828,6.602 2.6407,9.457 l -0.9844,0.774 -2.5313,-3.301 c -1.7617,0.219 -3.082,1.43 -3.6328,2.972 l 2.6406,3.075 -13.3085,10.781 V 310.93 h 4.2929 c 0.3242,-0.774 0.6563,-1.543 0.6563,-2.309 0,-0.773 -0.2227,-1.543 -0.6563,-2.203 h -4.2929 v -1.211 c 4.3984,-0.66 8.3593,-2.754 11.1093,-5.941 2.8594,-3.078 4.5117,-7.043 4.5117,-11.442 0,-4.511 -1.6523,-8.469 -4.5117,-11.66 -2.8633,-3.078 -6.7109,-5.168 -11.1093,-5.832 v -3.629 c -0.8829,-0.547 -1.8711,-0.769 -2.754,-0.769 -0.9882,0 -1.871,0.222 -2.75,0.769 v 3.629 c -4.1796,0.664 -8.246,2.754 -11.1093,5.945 -2.7539,3.078 -4.3985,7.036 -4.3985,11.547 0,4.399 1.6446,8.364 4.3985,11.442 2.8633,3.078 6.7109,5.168 11.1093,5.832 v 1.211 h -4.2851 c -0.332,0.769 -0.6641,1.425 -0.6641,2.195 0,0.883 0.2188,1.652 0.7696,2.426 h 4.1796 v 17.156 l -13.1992,-10.781 2.5313,-3.075 c -0.4414,-1.542 -1.8711,-2.648 -3.5196,-2.972 l -2.5312,3.301 -0.9922,-0.774 c 1.6524,-2.855 2.6445,-6.156 2.6445,-9.457 0,-4.84 -1.8711,-9.023 -4.9531,-12.211 -3.1875,-3.301 -7.3711,-5.058 -12.2109,-5.058 -4.8399,0 -9.13284,1.757 -12.53909,4.945 L 3.51953,289.586 C 1.65234,290.242 0.328125,291.789 0,293.879 l 2.96875,2.418 c -1.75781,2.859 -2.75,5.941 -2.75,9.57 0,4.731 1.87109,9.016 4.95313,12.102 3.1914,3.191 7.37112,5.168 12.21092,5.168 4.6211,0 9.1328,-1.867 12.5391,-4.953 l 0.9922,0.773 -2.7539,3.082 c 0.5507,1.649 1.8711,2.754 3.5195,3.078 l 2.6406,-3.41 15.1875,12.324 -15.1875,12.094 -1.9765,-2.309 2.8554,-2.312 -2.3086,-2.742 -2.8593,2.308 -1.9805,-2.527 2.8633,-2.313 -2.3086,-2.753 -7.5938,6.164 7.9258,4.511 -2.2031,1.864 -7.5938,-4.512 2.75,8.367 -2.1992,1.867 -2.8594,-8.797 -7.69919,6.157 2.30859,2.972 2.8594,-2.308 1.9805,2.418 -2.8633,2.308 2.3164,2.864 2.8554,-2.313 1.9805,2.418 -6.2695,4.957 c 0.3281,2.09 1.6523,3.848 3.5234,4.399 l 33.3281,-26.844 v 17.82 h -3.1875 v -3.633 H 44.332 v 3.633 h -3.1875 v -3.633 h -3.6328 v 9.903 l 8.5821,-3.52 v 2.75 l -8.25,3.301 8.25,3.191 v 2.746 l -8.5821,-3.406 v 10.008 h 3.6328 V 375.5 h 3.0782 v 3.629 h 3.7421 V 375.5 h 3.0821 v 8.031 c 0.8789,0.551 1.9765,0.774 2.8554,0.774 0.8829,0 1.9805,-0.223 2.754,-0.887 v -43.559 l 33.3281,26.954 c 1.9844,-0.551 3.3008,-2.309 3.6328,-4.293 l -6.2734,-5.063 1.9843,-2.418 2.8594,2.313 2.1992,-2.864 -2.8594,-2.308 2.0899,-2.418 2.8594,2.308 2.1992,-2.859 -7.6992,-6.27 -2.8594,8.797 -2.0899,-1.867 2.7461,-8.367 -7.6992,4.512 -2.1953,-1.758 7.918,-4.617 -7.5938,-6.164 -2.1953,2.753 2.75,2.313 -1.9844,2.527 -2.8554,-2.308 -2.2032,2.742 2.8633,2.312 -2.0898,2.309 -15.0742,-12.094 14.9609,-12.324 2.75,3.41 c 1.6484,-0.324 2.9727,-1.429 3.5195,-2.972 l -2.6367,-3.188 0.8789,-0.773 c 3.5196,3.086 7.918,4.953 12.5391,4.953 4.8437,0 9.0234,-1.867 12.2112,-5.168 3.082,-3.086 4.953,-7.371 4.953,-12.102 0,-3.629 -0.879,-6.711 -2.645,-9.57 l 2.864,-2.313 c -0.219,-2.089 -1.43,-3.625 -3.411,-4.289" /><path
         id="path3746"
         style="fill:#231f20;fill-opacity:1;fill-rule:nonzero;stroke:none"
         d="m 128.227,367.027 h 29.703 v -3.629 h -9.352 v -48.73 c 0,-3.52 0.313,-6.691 0.934,-9.516 0.625,-2.82 1.636,-5.238 3.027,-7.254 1.399,-2.019 3.227,-3.574 5.496,-4.683 2.278,-1.094 5.067,-1.645 8.367,-1.645 3.301,0 6.063,0.606 8.301,1.817 2.235,1.211 4.031,2.89 5.395,5.058 1.351,2.16 2.324,4.727 2.91,7.7 0.586,2.968 0.879,6.214 0.879,9.73 v 47.523 h -8.574 v 3.629 h 21.117 v -3.629 h -7.918 v -48.175 c 0,-4.035 -0.426,-7.762 -1.266,-11.168 -0.848,-3.41 -2.258,-6.364 -4.238,-8.86 -1.981,-2.492 -4.602,-4.453 -7.867,-5.882 -3.262,-1.43 -7.313,-2.145 -12.153,-2.145 -5.058,0 -9.258,0.66 -12.593,1.98 -3.332,1.321 -6.016,3.153 -8.032,5.5 -2.015,2.344 -3.425,5.153 -4.234,8.415 -0.809,3.265 -1.211,6.839 -1.211,10.722 v 49.613 h -8.691 v 3.629" /><path
         id="path3748"
         style="fill:#231f20;fill-opacity:1;fill-rule:nonzero;stroke:none"
         d="m 223.289,292.012 h 8.473 c 5.722,0 9.883,1.574 12.48,4.726 2.606,3.153 3.906,7.774 3.906,13.864 0,6.156 -1.445,10.609 -4.343,13.359 -2.899,2.754 -6.766,4.125 -11.602,4.125 h -8.914 z m 0,40.261 h 8.367 c 1.899,0 3.66,0.293 5.274,0.872 1.609,0.585 3.027,1.503 4.238,2.753 1.211,1.247 2.156,2.86 2.855,4.84 0.7,1.985 1.047,4.36 1.047,7.149 0,4.691 -1.062,8.453 -3.191,11.273 -2.129,2.824 -5.496,4.238 -10.117,4.238 h -8.473 z m -20.125,-40.261 h 8.793 v 71.386 h -8.793 v 3.629 h 32.774 c 6.75,0 11.953,-1.589 15.625,-4.785 3.664,-3.187 5.5,-7.426 5.5,-12.699 0,-5.656 -1.614,-9.961 -4.844,-12.93 -3.227,-2.968 -7.664,-5.004 -13.309,-6.105 v -0.219 c 2.86,-0.371 5.594,-0.973 8.195,-1.816 2.602,-0.844 4.872,-2.086 6.821,-3.739 1.941,-1.648 3.5,-3.703 4.672,-6.16 1.179,-2.461 1.757,-5.441 1.757,-8.965 0,-3.964 -0.671,-7.277 -2.031,-9.953 -1.355,-2.683 -3.187,-4.863 -5.496,-6.551 -2.308,-1.683 -4.973,-2.898 -7.98,-3.625 -3.008,-0.734 -6.196,-1.105 -9.567,-1.105 h -32.117 v 3.637" /><path
         id="path3750"
         style="fill:#231f20;fill-opacity:1;fill-rule:nonzero;stroke:none"
         d="m 270.531,312.246 h 3.746 c 0.364,-6.707 2.203,-11.976 5.504,-15.808 3.293,-3.829 8.063,-5.754 14.297,-5.754 1.981,0 3.902,0.261 5.77,0.777 1.875,0.512 3.519,1.363 4.953,2.539 1.433,1.172 2.566,2.688 3.406,4.523 0.848,1.836 1.266,4.047 1.266,6.625 0,3.383 -0.918,6.102 -2.75,8.165 -1.828,2.054 -4.125,3.843 -6.875,5.351 -2.743,1.508 -5.735,2.926 -8.965,4.246 -3.227,1.328 -6.211,2.942 -8.965,4.852 -2.746,1.902 -5.039,4.269 -6.875,7.093 -1.828,2.821 -2.746,6.504 -2.746,11.051 0,3.742 0.609,7.004 1.808,9.793 1.219,2.789 2.829,5.117 4.844,6.985 2.02,1.875 4.364,3.281 7.043,4.238 2.668,0.945 5.516,1.426 8.524,1.426 2.785,0 5.996,-0.422 9.625,-1.266 3.632,-0.84 6.91,-1.992 9.843,-3.461 l 0.664,-17.273 h -3.3 c -0.953,6.05 -2.793,10.621 -5.504,13.722 -2.715,3.094 -6.856,4.649 -12.43,4.649 -1.691,0 -3.281,-0.274 -4.785,-0.821 -1.504,-0.546 -2.856,-1.371 -4.066,-2.472 -1.208,-1.094 -2.165,-2.461 -2.864,-4.102 -0.699,-1.644 -1.043,-3.562 -1.043,-5.754 0,-3.211 0.918,-5.734 2.75,-7.558 1.832,-1.824 4.125,-3.414 6.875,-4.766 2.75,-1.355 5.719,-2.633 8.91,-3.844 3.188,-1.211 6.161,-2.769 8.911,-4.672 2.753,-1.91 5.043,-4.343 6.875,-7.316 1.832,-2.973 2.753,-6.91 2.753,-11.82 0,-3.746 -0.578,-7.121 -1.71,-10.121 -1.137,-3.008 -2.766,-5.578 -4.891,-7.703 -2.129,-2.129 -4.719,-3.778 -7.762,-4.95 -3.039,-1.172 -6.469,-1.761 -10.281,-1.761 -4.106,0 -7.973,0.371 -11.606,1.101 -3.628,0.727 -7.054,2.012 -10.285,3.852 l -0.664,20.234" /><path
         id="path3752"
         style="fill:#231f20;fill-opacity:1;fill-rule:nonzero;stroke:none"
         d="m 400.078,340.848 h -3.515 c -0.372,3.386 -0.958,6.554 -1.758,9.504 -0.813,2.945 -1.934,5.507 -3.36,7.683 -1.425,2.172 -3.242,3.887 -5.449,5.137 -2.187,1.25 -4.844,1.875 -7.91,1.875 -4.629,0 -8.309,-1.125 -11.055,-3.359 -2.754,-2.254 -4.843,-5.133 -6.277,-8.668 -1.43,-3.528 -2.363,-7.52 -2.805,-11.969 -0.437,-4.449 -0.652,-8.883 -0.652,-13.289 0,-2.5 0.047,-5.172 0.164,-8 0.109,-2.836 0.383,-5.629 0.82,-8.383 0.442,-2.758 1.086,-5.41 1.922,-7.945 0.844,-2.539 1.985,-4.782 3.41,-6.735 1.426,-1.941 3.203,-3.488 5.332,-4.629 2.129,-1.144 4.7,-1.711 7.707,-1.711 3.153,0 5.926,0.715 8.309,2.153 2.375,1.441 4.394,3.355 6.047,5.746 1.648,2.387 2.957,5.152 3.894,8.285 0.957,3.125 1.543,6.426 1.77,9.891 h 3.406 v -21.891 c -8.047,-4.992 -15.957,-7.484 -23.711,-7.484 -5.117,0 -9.695,1.007 -13.719,3.027 -4.035,2.016 -7.414,4.836 -10.156,8.465 -2.746,3.633 -4.836,7.922 -6.262,12.871 -1.425,4.953 -2.136,10.402 -2.136,16.34 0,5.863 0.769,11.269 2.304,16.222 1.532,4.95 3.739,9.239 6.59,12.868 2.852,3.632 6.328,6.449 10.418,8.476 4.106,2.008 8.723,3.02 13.84,3.02 3.875,0 7.715,-0.586 11.524,-1.754 3.808,-1.176 7.578,-2.715 11.308,-4.629 v -21.117" /><path
         id="path3754"
         style="fill:#231f20;fill-opacity:1;fill-rule:nonzero;stroke:none"
         d="m 440.469,321.93 c -0.078,2.929 -0.196,5.55 -0.391,7.863 -0.176,2.309 -0.547,4.277 -1.094,5.887 -0.546,1.613 -1.386,2.836 -2.531,3.687 -1.14,0.84 -2.683,1.266 -4.676,1.266 -2.05,0 -3.75,-0.664 -5.105,-1.985 -1.359,-1.316 -2.426,-2.933 -3.195,-4.839 -0.774,-1.907 -1.321,-3.946 -1.641,-6.102 -0.344,-2.168 -0.508,-4.094 -0.508,-5.777 z m -19.141,-3.301 v -1.875 c 0,-3.535 0.117,-6.871 0.332,-9.996 0.227,-3.129 0.75,-5.891 1.602,-8.285 0.84,-2.391 2.101,-4.282 3.789,-5.688 1.691,-1.398 4.004,-2.101 6.933,-2.101 4.102,0 7.325,1.328 9.676,3.964 2.356,2.637 4.074,5.938 5.168,9.899 l 2.871,-0.984 c -1.543,-5.946 -3.906,-10.176 -7.109,-12.711 -3.184,-2.532 -7.305,-3.793 -12.363,-3.793 -3.516,0 -6.7,0.73 -9.524,2.199 -2.82,1.465 -5.183,3.465 -7.098,5.992 -1.894,2.531 -3.359,5.523 -4.394,8.969 -1.023,3.445 -1.543,7.148 -1.543,11.109 0,3.813 0.5,7.422 1.484,10.836 0.996,3.406 2.461,6.402 4.407,8.965 1.941,2.566 4.343,4.617 7.195,6.156 2.871,1.543 6.172,2.309 9.902,2.309 3.528,0 6.555,-0.578 9.082,-1.75 2.532,-1.164 4.59,-2.848 6.153,-5.035 1.582,-2.192 2.754,-4.821 3.527,-7.887 0.77,-3.067 1.152,-6.5 1.152,-10.293 h -31.242" /><path
         id="path3756"
         style="fill:#231f20;fill-opacity:1;fill-rule:nonzero;stroke:none"
         d="m 456.738,291.676 h 7.813 v 47.301 h -7.813 v 3.3 h 18.047 V 332.156 H 475 c 1.465,4.106 3.535,7.043 6.211,8.801 2.687,1.766 5.891,2.637 9.629,2.637 5.281,0 8.984,-1.535 11.113,-4.617 2.129,-3.079 3.184,-8.102 3.184,-15.071 v -32.23 h 7.265 v -3.301 h -24.961 v 3.301 h 7.469 v 35.531 c 0,3.746 -0.586,6.637 -1.765,8.691 -1.161,2.051 -3.145,3.079 -5.938,3.079 -2.129,0 -3.953,-0.657 -5.496,-1.977 -1.535,-1.32 -2.824,-3.027 -3.848,-5.117 -1.027,-2.09 -1.797,-4.453 -2.316,-7.098 -0.508,-2.637 -0.762,-5.273 -0.762,-7.918 v -25.191 h 7.149 v -3.301 h -25.196 v 3.301" /><path
         id="path3758"
         style="fill:#231f20;fill-opacity:1;fill-rule:nonzero;stroke:none"
         d="m 520.48,357.02 h 10.45 v -14.743 h 10.008 v -3.3 H 530.93 V 299.93 c 0,-2.715 0.183,-4.735 0.554,-6.051 0.352,-1.32 1.387,-1.984 3.067,-1.984 1.621,0 2.883,0.515 3.808,1.543 0.918,1.027 1.739,2.238 2.469,3.632 l 2.317,-1.547 c -1.18,-2.191 -2.665,-4.085 -4.461,-5.66 -1.797,-1.574 -4.309,-2.363 -7.532,-2.363 -2.05,0 -3.769,0.309 -5.117,0.934 -1.367,0.625 -2.461,1.484 -3.301,2.589 -0.847,1.098 -1.425,2.415 -1.757,3.954 -0.332,1.539 -0.497,3.265 -0.497,5.175 v 38.825 h -7.492 v 3.3 h 7.492 v 14.743" /><path
         id="path3760"
         style="fill:#231f20;fill-opacity:1;fill-rule:nonzero;stroke:none"
         d="m 577.219,321.93 c -0.071,2.929 -0.207,5.55 -0.383,7.863 -0.184,2.309 -0.547,4.277 -1.094,5.887 -0.566,1.613 -1.406,2.836 -2.539,3.687 -1.133,0.84 -2.695,1.266 -4.676,1.266 -2.05,0 -3.761,-0.664 -5.109,-1.985 -1.367,-1.316 -2.422,-2.933 -3.191,-4.839 -0.774,-1.907 -1.321,-3.946 -1.653,-6.102 -0.332,-2.168 -0.5,-4.094 -0.5,-5.777 z m -19.145,-3.301 v -1.875 c 0,-3.535 0.11,-6.871 0.324,-9.996 0.223,-3.129 0.762,-5.891 1.602,-8.285 0.84,-2.391 2.109,-4.282 3.801,-5.688 1.687,-1.398 3.992,-2.101 6.922,-2.101 4.113,0 7.336,1.328 9.687,3.964 2.344,2.637 4.063,5.938 5.164,9.899 l 2.864,-0.984 c -1.543,-5.946 -3.907,-10.176 -7.09,-12.711 -3.192,-2.532 -7.325,-3.793 -12.383,-3.793 -3.516,0 -6.699,0.73 -9.512,2.199 -2.832,1.465 -5.195,3.465 -7.09,5.992 -1.914,2.531 -3.379,5.523 -4.414,8.969 -1.015,3.445 -1.531,7.148 -1.531,11.109 0,3.813 0.496,7.422 1.484,10.836 0.985,3.406 2.461,6.402 4.403,8.965 1.933,2.566 4.347,4.617 7.207,6.156 2.851,1.543 6.152,2.309 9.902,2.309 3.516,0 6.543,-0.578 9.063,-1.75 2.539,-1.164 4.589,-2.848 6.171,-5.035 1.575,-2.192 2.747,-4.821 3.516,-7.887 0.762,-3.067 1.152,-6.5 1.152,-10.293 h -31.242" /><path
         id="path3762"
         style="fill:#231f20;fill-opacity:1;fill-rule:nonzero;stroke:none"
         d="m 593.477,291.676 h 7.812 v 47.301 h -7.812 v 3.3 h 18.046 v -11.109 h 0.215 c 0.957,3.52 2.422,6.477 4.407,8.852 1.98,2.382 4.656,3.574 8.035,3.574 3.078,0 5.332,-0.86 6.758,-2.582 1.425,-1.723 2.148,-4.196 2.148,-7.422 0,-1.981 -0.43,-3.672 -1.27,-5.063 -0.839,-1.398 -2.246,-2.086 -4.238,-2.086 -1.758,0 -2.949,0.528 -3.574,1.594 -0.613,1.059 -0.938,2.363 -0.938,3.899 0,1.027 0.059,1.875 0.176,2.531 0.117,0.664 0.164,1.394 0.164,2.203 0,0.734 -0.125,1.355 -0.386,1.867 -0.254,0.516 -0.864,0.774 -1.809,0.774 -1.25,0 -2.461,-0.754 -3.633,-2.25 -1.172,-1.504 -2.207,-3.414 -3.086,-5.723 -0.879,-2.313 -1.601,-4.914 -2.148,-7.813 -0.547,-2.898 -0.821,-5.699 -0.821,-8.414 v -23.433 h 7.696 v -3.301 h -25.742 v 3.301" /><path
         id="path3764"
         style="fill:#706d6e;fill-opacity:1;fill-rule:nonzero;stroke:none"
         d="m 174.156,198.516 c 0,-3.008 0.074,-5.996 0.223,-8.965 0.148,-2.977 0.582,-5.633 1.32,-7.977 0.731,-2.344 1.813,-4.269 3.246,-5.773 1.43,-1.504 3.422,-2.254 5.996,-2.254 2.493,0 4.454,0.75 5.883,2.254 1.426,1.504 2.504,3.429 3.242,5.773 0.735,2.344 1.172,5 1.325,7.977 0.14,2.969 0.214,5.957 0.214,8.965 0,2.941 -0.074,5.898 -0.214,8.906 -0.153,3.008 -0.59,5.683 -1.325,8.039 -0.738,2.344 -1.816,4.258 -3.242,5.762 -1.429,1.504 -3.39,2.265 -5.883,2.265 -2.574,0 -4.566,-0.761 -5.996,-2.265 -1.433,-1.504 -2.515,-3.418 -3.246,-5.762 -0.738,-2.356 -1.172,-5.031 -1.32,-8.039 -0.149,-3.008 -0.223,-5.965 -0.223,-8.906 z m -11.656,0 c 0,3.078 0.422,6.289 1.266,9.621 0.839,3.34 2.164,6.386 3.961,9.14 1.796,2.743 4.105,5.02 6.925,6.817 2.825,1.797 6.254,2.695 10.289,2.695 3.957,0 7.344,-0.898 10.172,-2.695 2.821,-1.797 5.129,-4.074 6.934,-6.817 1.797,-2.754 3.113,-5.8 3.953,-9.14 0.84,-3.332 1.266,-6.543 1.266,-9.621 0,-3.075 -0.426,-6.297 -1.266,-9.629 -0.84,-3.328 -2.156,-6.375 -3.953,-9.129 -1.805,-2.746 -4.113,-5.02 -6.934,-6.817 -2.828,-1.796 -6.215,-2.695 -10.172,-2.695 -4.035,0 -7.484,0.879 -10.339,2.637 -2.864,1.758 -5.196,4.023 -6.989,6.765 -1.797,2.754 -3.101,5.793 -3.906,9.133 -0.805,3.34 -1.207,6.582 -1.207,9.735" /><path
         id="path3766"
         style="fill:#706d6e;fill-opacity:1;fill-rule:nonzero;stroke:none"
         d="m 129.836,173.547 h 7.586 v 47.293 h -7.586 v 3.301 h 7.586 v 7.148 c 0,3.594 0.348,6.602 1.047,9.024 0.695,2.421 1.726,4.375 3.074,5.832 1.363,1.472 3.008,2.507 4.957,3.132 1.941,0.625 4.164,0.938 6.66,0.938 1.313,0 2.797,-0.098 4.449,-0.274 1.649,-0.175 3.188,-0.625 4.614,-1.328 1.437,-0.691 2.648,-1.699 3.64,-3.015 0.977,-1.321 1.477,-3.078 1.477,-5.285 0,-1.024 -0.324,-2.149 -0.977,-3.36 -0.656,-1.199 -1.992,-1.805 -4.023,-1.805 -0.934,0 -1.68,0.165 -2.223,0.497 -0.547,0.324 -0.961,0.761 -1.254,1.308 -0.289,0.567 -0.488,1.203 -0.601,1.934 -0.102,0.734 -0.196,1.465 -0.266,2.207 -0.152,1.535 -0.465,2.949 -0.957,4.23 -0.476,1.278 -1.676,1.922 -3.605,1.922 -2.375,0 -3.895,-0.957 -4.563,-2.851 -0.664,-1.915 -0.996,-4.375 -0.996,-7.383 v -12.871 h 9.785 v -3.301 h -9.785 v -47.293 h 7.699 v -3.301 h -25.738 v 3.301" /><path
         id="path3768"
         style="fill:#706d6e;fill-opacity:1;fill-rule:nonzero;stroke:none"
         d="m 277.609,174.816 h 8.793 v 71.395 h -8.793 v 3.625 h 54.547 l 0.336,-22.668 h -3.301 c -0.66,4.707 -1.476,8.332 -2.461,10.898 -0.992,2.559 -2.453,4.454 -4.386,5.664 -1.938,1.211 -4.442,1.926 -7.516,2.149 -3.058,0.215 -7.012,0.332 -11.836,0.332 h -4.926 v -33.34 c 3.559,0 6.387,0.207 8.457,0.606 2.082,0.41 3.629,1.171 4.645,2.285 1.023,1.093 1.68,2.687 1.973,4.758 0.293,2.058 0.429,4.753 0.429,8.085 h 3.414 v -34.101 h -3.414 c 0,3.172 -0.136,5.762 -0.429,7.762 -0.293,1.992 -0.95,3.527 -1.973,4.589 -1.016,1.075 -2.563,1.797 -4.645,2.168 -2.07,0.372 -4.898,0.547 -8.457,0.547 v -34.754 h 12.981 c 3.363,0 6.269,0.379 8.683,1.153 2.422,0.769 4.473,2.019 6.165,3.738 1.683,1.719 3.043,3.996 4.062,6.828 1.031,2.82 1.766,6.278 2.199,10.379 h 3.305 l -0.656,-25.73 h -57.196 v 3.632" /><path
         id="path3770"
         style="fill:#706d6e;fill-opacity:1;fill-rule:nonzero;stroke:none"
         d="m 385.402,188.008 c -1.035,-3.438 -2.246,-6.317 -3.64,-8.633 -1.399,-2.305 -2.942,-4.16 -4.629,-5.547 -1.692,-1.406 -3.555,-2.402 -5.57,-3.027 -2.028,-0.625 -4.168,-0.938 -6.454,-0.938 -3.453,0 -6.582,0.754 -9.375,2.258 -2.793,1.504 -5.152,3.543 -7.058,6.102 -1.906,2.57 -3.387,5.558 -4.406,8.965 -1.036,3.417 -1.551,7.062 -1.551,10.949 0,3.953 0.574,7.644 1.715,11.054 1.132,3.407 2.714,6.395 4.742,8.965 2.015,2.567 4.433,4.578 7.226,6.043 2.789,1.465 5.879,2.207 9.258,2.207 2.281,0 4.528,-0.312 6.735,-0.937 2.199,-0.625 4.171,-1.582 5.89,-2.86 1.735,-1.281 3.117,-2.882 4.141,-4.777 1.027,-1.914 1.543,-4.121 1.543,-6.602 0,-2.207 -0.489,-3.789 -1.446,-4.734 -0.96,-0.957 -2.191,-1.437 -3.664,-1.437 -1.929,0 -3.257,0.644 -4.004,1.933 -0.75,1.281 -1.113,2.832 -1.113,4.668 v 2.649 c 0,2.929 -0.679,5.183 -2.039,6.765 -1.351,1.563 -3.348,2.364 -5.984,2.364 -2.36,0 -4.266,-0.665 -5.727,-1.981 -1.465,-1.32 -2.625,-3.137 -3.469,-5.449 -0.839,-2.317 -1.41,-4.981 -1.703,-8.028 -0.293,-3.039 -0.433,-6.32 -0.433,-9.843 0,-2.278 0.086,-4.824 0.265,-7.649 0.192,-2.82 0.723,-5.457 1.614,-7.918 0.882,-2.461 2.207,-4.511 3.968,-6.164 1.762,-1.648 4.235,-2.48 7.403,-2.48 2.054,0 3.855,0.351 5.406,1.054 1.543,0.696 2.906,1.7 4.09,3.028 1.18,1.308 2.183,2.89 3.035,4.726 0.844,1.836 1.641,3.926 2.371,6.27 l 2.863,-0.996" /><path
         id="path3772"
         style="fill:#706d6e;fill-opacity:1;fill-rule:nonzero;stroke:none"
         d="m 402.563,198.137 c 0,-3.008 0.066,-5.996 0.214,-8.965 0.153,-2.981 0.586,-5.637 1.325,-7.981 0.726,-2.343 1.812,-4.265 3.246,-5.769 1.425,-1.504 3.425,-2.258 5.996,-2.258 2.484,0 4.449,0.754 5.886,2.258 1.418,1.504 2.504,3.426 3.243,5.769 0.726,2.344 1.175,5 1.316,7.981 0.152,2.969 0.219,5.957 0.219,8.965 0,2.937 -0.067,5.898 -0.219,8.906 -0.141,3.008 -0.59,5.684 -1.316,8.035 -0.739,2.344 -1.825,4.258 -3.243,5.762 -1.437,1.504 -3.402,2.265 -5.886,2.265 -2.571,0 -4.571,-0.761 -5.996,-2.265 -1.434,-1.504 -2.52,-3.418 -3.246,-5.762 -0.739,-2.351 -1.172,-5.027 -1.325,-8.035 -0.148,-3.008 -0.214,-5.969 -0.214,-8.906 z m -11.665,0 c 0,3.074 0.422,6.289 1.266,9.617 0.844,3.34 2.16,6.387 3.957,9.141 1.805,2.746 4.113,5.019 6.938,6.816 2.816,1.797 6.254,2.695 10.285,2.695 3.961,0 7.351,-0.898 10.172,-2.695 2.816,-1.797 5.132,-4.07 6.929,-6.816 1.797,-2.754 3.121,-5.801 3.953,-9.141 0.844,-3.328 1.27,-6.543 1.27,-9.617 0,-3.078 -0.426,-6.301 -1.27,-9.629 -0.832,-3.332 -2.156,-6.379 -3.953,-9.133 -1.797,-2.742 -4.113,-5.02 -6.929,-6.816 -2.821,-1.797 -6.211,-2.696 -10.172,-2.696 -4.031,0 -7.485,0.879 -10.348,2.637 -2.848,1.758 -5.183,4.023 -6.98,6.77 -1.797,2.753 -3.102,5.789 -3.907,9.128 -0.8,3.34 -1.211,6.582 -1.211,9.739" /><path
         id="path3774"
         style="fill:#706d6e;fill-opacity:1;fill-rule:nonzero;stroke:none"
         d="m 439.738,174.484 h 7.817 v 47.293 h -7.817 v 3.301 h 18.039 v -10.117 h 0.219 c 1.473,4.102 3.543,7.043 6.215,8.809 2.684,1.757 5.891,2.636 9.633,2.636 5.277,0 8.972,-1.543 11.105,-4.629 2.125,-3.066 3.192,-8.105 3.192,-15.058 v -32.235 h 7.261 v -3.3 h -24.968 v 3.3 h 7.472 v 35.536 c 0,3.73 -0.582,6.632 -1.754,8.691 -1.175,2.051 -3.156,3.066 -5.937,3.066 -2.141,0 -3.969,-0.644 -5.508,-1.972 -1.539,-1.328 -2.816,-3.028 -3.848,-5.117 -1.031,-2.09 -1.793,-4.454 -2.304,-7.09 -0.524,-2.637 -0.778,-5.282 -0.778,-7.93 v -25.184 h 7.157 v -3.3 h -25.196 v 3.3" /><path
         id="path3776"
         style="fill:#706d6e;fill-opacity:1;fill-rule:nonzero;stroke:none"
         d="m 511.012,198.137 c 0,-3.008 0.066,-5.996 0.218,-8.965 0.149,-2.981 0.586,-5.637 1.313,-7.981 0.738,-2.343 1.816,-4.265 3.25,-5.769 1.434,-1.504 3.43,-2.258 5.992,-2.258 2.492,0 4.457,0.754 5.895,2.258 1.425,1.504 2.508,3.426 3.234,5.769 0.738,2.344 1.18,5 1.328,7.981 0.145,2.969 0.215,5.957 0.215,8.965 0,2.937 -0.07,5.898 -0.215,8.906 -0.148,3.008 -0.59,5.684 -1.328,8.035 -0.726,2.344 -1.809,4.258 -3.234,5.762 -1.438,1.504 -3.403,2.265 -5.895,2.265 -2.562,0 -4.558,-0.761 -5.992,-2.265 -1.434,-1.504 -2.512,-3.418 -3.25,-5.762 -0.727,-2.351 -1.164,-5.027 -1.313,-8.035 -0.152,-3.008 -0.218,-5.969 -0.218,-8.906 z m -11.66,0 c 0,3.074 0.418,6.289 1.257,9.617 0.84,3.34 2.164,6.387 3.961,9.141 1.797,2.746 4.114,5.019 6.93,6.816 2.82,1.797 6.258,2.695 10.285,2.695 3.961,0 7.356,-0.898 10.172,-2.695 2.824,-1.797 5.137,-4.07 6.941,-6.816 1.797,-2.754 3.114,-5.801 3.957,-9.141 0.836,-3.328 1.262,-6.543 1.262,-9.617 0,-3.078 -0.426,-6.301 -1.262,-9.629 -0.843,-3.332 -2.16,-6.379 -3.957,-9.133 -1.804,-2.742 -4.117,-5.02 -6.941,-6.816 -2.816,-1.797 -6.211,-2.696 -10.172,-2.696 -4.027,0 -7.472,0.879 -10.34,2.637 -2.851,1.758 -5.183,4.023 -6.988,6.77 -1.797,2.753 -3.094,5.789 -3.894,9.128 -0.813,3.34 -1.211,6.582 -1.211,9.739" /><path
         id="path3778"
         style="fill:#706d6e;fill-opacity:1;fill-rule:nonzero;stroke:none"
         d="m 548.328,174.484 h 7.82 v 47.293 h -7.82 v 3.301 h 18.035 v -9.012 h 0.239 c 1.519,3.594 3.664,6.219 6.406,7.86 2.73,1.66 5.933,2.48 9.59,2.48 3.867,0 6.929,-0.84 9.195,-2.539 2.27,-1.679 3.691,-4.578 4.277,-8.691 h 0.215 c 0.664,2.062 1.567,3.808 2.699,5.234 1.129,1.426 2.418,2.578 3.844,3.457 1.449,0.891 2.957,1.524 4.574,1.934 1.614,0.402 3.258,0.605 4.957,0.605 4.614,0 8.149,-1.23 10.61,-3.691 2.461,-2.449 3.687,-6.61 3.687,-12.481 v -35.75 h 7.246 v -3.3 h -24.839 v 3.3 h 7.363 v 35.633 c 0,3.457 -0.524,6.262 -1.559,8.418 -1.019,2.168 -2.933,3.242 -5.75,3.242 -2.066,0 -3.883,-0.507 -5.465,-1.531 -1.589,-1.027 -2.914,-2.441 -3.988,-4.238 -1.07,-1.797 -1.887,-3.887 -2.434,-6.262 -0.55,-2.391 -0.828,-4.902 -0.828,-7.539 v -27.723 h 7.368 v -3.3 h -24.747 v 3.3 h 7.145 v 35.633 c 0,3.821 -0.547,6.719 -1.645,8.692 -1.109,1.984 -3.039,2.968 -5.832,2.968 -1.91,0 -3.632,-0.488 -5.164,-1.484 -1.543,-0.984 -2.843,-2.344 -3.914,-4.063 -1.058,-1.726 -1.863,-3.738 -2.422,-6.054 -0.539,-2.305 -0.828,-4.785 -0.828,-7.422 v -28.27 h 7.383 v -3.3 h -25.418 v 3.3" /><path
         id="path3780"
         style="fill:#706d6e;fill-opacity:1;fill-rule:nonzero;stroke:none"
         d="m 646.477,242.246 c 0,1.973 0.586,3.672 1.761,5.059 1.172,1.386 2.742,2.09 4.731,2.09 1.898,0 3.433,-0.704 4.613,-2.09 1.164,-1.387 1.766,-3.086 1.766,-5.059 0,-1.914 -0.602,-3.555 -1.766,-4.949 -1.18,-1.399 -2.715,-2.09 -4.613,-2.09 -1.989,0 -3.559,0.691 -4.731,2.09 -1.175,1.394 -1.761,3.035 -1.761,4.949 z m -6.926,-67.762 h 7.691 v 47.293 h -7.691 v 3.301 h 18.262 v -50.594 h 7.695 v -3.3 h -25.957 v 3.3" /><path
         id="path3782"
         style="fill:#706d6e;fill-opacity:1;fill-rule:nonzero;stroke:none"
         d="m 712.188,188.008 c -1.032,-3.438 -2.247,-6.317 -3.641,-8.633 -1.399,-2.305 -2.942,-4.16 -4.637,-5.547 -1.683,-1.406 -3.543,-2.402 -5.558,-3.027 -2.028,-0.625 -4.172,-0.938 -6.457,-0.938 -3.457,0 -6.582,0.754 -9.375,2.258 -2.793,1.504 -5.137,3.543 -7.067,6.102 -1.898,2.57 -3.367,5.558 -4.398,8.965 -1.035,3.417 -1.543,7.062 -1.543,10.949 0,3.953 0.562,7.644 1.695,11.054 1.152,3.407 2.734,6.395 4.746,8.965 2.027,2.567 4.438,4.578 7.231,6.043 2.793,1.465 5.879,2.207 9.261,2.207 2.282,0 4.528,-0.312 6.735,-0.937 2.207,-0.625 4.172,-1.582 5.894,-2.86 1.735,-1.281 3.11,-2.882 4.145,-4.777 1.019,-1.914 1.543,-4.121 1.543,-6.602 0,-2.207 -0.489,-3.789 -1.446,-4.734 -0.964,-0.957 -2.191,-1.437 -3.671,-1.437 -1.938,0 -3.262,0.644 -4.004,1.933 -0.743,1.281 -1.114,2.832 -1.114,4.668 v 2.649 c 0,2.929 -0.672,5.183 -2.035,6.765 -1.351,1.563 -3.355,2.364 -5.996,2.364 -2.348,0 -4.258,-0.665 -5.719,-1.981 -1.464,-1.32 -2.621,-3.137 -3.461,-5.449 -0.859,-2.317 -1.421,-4.981 -1.714,-8.028 -0.293,-3.039 -0.434,-6.32 -0.434,-9.843 0,-2.278 0.094,-4.824 0.273,-7.649 0.176,-2.82 0.723,-5.457 1.602,-7.918 0.883,-2.461 2.207,-4.511 3.98,-6.164 1.762,-1.648 4.223,-2.48 7.387,-2.48 2.074,0 3.867,0.351 5.41,1.054 1.567,0.696 2.914,1.7 4.09,3.028 1.188,1.308 2.199,2.89 3.039,4.726 0.856,1.836 1.645,3.926 2.383,6.27 l 2.856,-0.996" /><path
         id="path3784"
         style="fill:#706d6e;fill-opacity:1;fill-rule:nonzero;stroke:none"
         d="m 719.18,190.109 h 2.855 c 0.078,-5.207 1.301,-9.386 3.688,-12.55 2.382,-3.145 5.816,-4.727 10.293,-4.727 3.148,0 5.679,0.773 7.589,2.316 1.903,1.532 2.86,3.778 2.86,6.707 0,2.266 -0.664,4.141 -1.977,5.606 -1.328,1.465 -2.972,2.734 -4.961,3.801 -1.984,1.062 -4.097,2.07 -6.379,3.015 -2.273,0.957 -4.402,2.129 -6.371,3.528 -1.996,1.394 -3.632,3.113 -4.957,5.164 -1.312,2.051 -1.976,4.687 -1.976,7.929 0,2.637 0.472,4.922 1.426,6.875 0.957,1.934 2.222,3.555 3.8,4.836 1.571,1.278 3.407,2.235 5.496,2.86 2.086,0.625 4.278,0.937 6.543,0.937 2.418,0 4.954,-0.254 7.594,-0.769 2.641,-0.52 4.985,-1.172 7.031,-1.985 v -13.75 h -2.3 c -0.508,4.297 -1.707,7.618 -3.575,9.981 -1.875,2.363 -4.789,3.555 -8.75,3.555 -1.324,0 -2.574,-0.157 -3.734,-0.45 -1.184,-0.293 -2.242,-0.761 -3.199,-1.414 -0.942,-0.656 -1.699,-1.476 -2.246,-2.453 -0.547,-0.996 -0.828,-2.168 -0.828,-3.555 0,-2.187 0.664,-3.886 1.976,-5.086 1.324,-1.203 2.988,-2.257 5.016,-3.175 2.015,-0.907 4.183,-1.766 6.527,-2.578 2.363,-0.801 4.531,-1.914 6.559,-3.348 2.015,-1.438 3.679,-3.262 5.008,-5.5 1.304,-2.246 1.968,-5.223 1.968,-8.965 0,-5.723 -1.699,-9.988 -5.101,-12.812 -3.41,-2.821 -7.864,-4.239 -13.371,-4.239 -2.934,0 -5.825,0.332 -8.633,0.996 -2.832,0.657 -5.449,1.504 -7.871,2.52 v 16.73" /><path
         id="path3786"
         style="fill:#706d6e;fill-opacity:1;fill-rule:nonzero;stroke:none"
         d="m 793.652,242.246 c 0,1.973 0.582,3.672 1.754,5.059 1.172,1.386 2.754,2.09 4.727,2.09 1.914,0 3.457,-0.704 4.629,-2.09 1.172,-1.387 1.758,-3.086 1.758,-5.059 0,-1.914 -0.586,-3.555 -1.758,-4.949 -1.172,-1.399 -2.715,-2.09 -4.629,-2.09 -1.973,0 -3.555,0.691 -4.727,2.09 -1.172,1.394 -1.754,3.035 -1.754,4.949 z m -6.922,-67.762 h 7.688 v 47.293 h -7.688 v 3.301 h 18.247 v -50.594 h 7.703 v -3.3 h -25.95 v 3.3" /><path
         id="path3788"
         style="fill:#706d6e;fill-opacity:1;fill-rule:nonzero;stroke:none"
         d="m 817.887,174.484 h 7.812 v 47.293 h -7.812 v 3.301 h 18.035 v -10.117 h 0.226 c 1.465,4.102 3.536,7.043 6.211,8.809 2.676,1.757 5.879,2.636 9.629,2.636 5.274,0 8.973,-1.543 11.102,-4.629 2.121,-3.066 3.195,-8.105 3.195,-15.058 v -32.235 h 7.254 v -3.3 H 848.57 v 3.3 h 7.481 v 35.536 c 0,3.73 -0.586,6.632 -1.758,8.691 -1.172,2.051 -3.156,3.066 -5.938,3.066 -2.128,0 -3.964,-0.644 -5.507,-1.972 -1.543,-1.328 -2.825,-3.028 -3.848,-5.117 -1.027,-2.09 -1.797,-4.454 -2.305,-7.09 -0.519,-2.637 -0.773,-5.282 -0.773,-7.93 v -25.184 h 7.148 v -3.3 h -25.183 v 3.3" /><path
         id="path3790"
         style="fill:#706d6e;fill-opacity:1;fill-rule:nonzero;stroke:none"
         d="m 905.551,195.059 h 3.742 c 0.371,-6.719 2.207,-11.981 5.496,-15.821 3.301,-3.828 8.078,-5.742 14.309,-5.742 1.972,0 3.894,0.254 5.769,0.774 1.867,0.515 3.528,1.355 4.953,2.527 1.426,1.183 2.559,2.695 3.407,4.531 0.851,1.836 1.261,4.043 1.261,6.621 0,3.379 -0.918,6.114 -2.746,8.164 -1.824,2.063 -4.129,3.848 -6.875,5.352 -2.742,1.515 -5.742,2.93 -8.965,4.258 -3.23,1.32 -6.218,2.929 -8.972,4.843 -2.735,1.895 -5.039,4.278 -6.875,7.09 -1.828,2.832 -2.735,6.504 -2.735,11.055 0,3.75 0.594,7.012 1.817,9.797 1.211,2.781 2.812,5.105 4.832,6.98 2.023,1.875 4.367,3.282 7.043,4.239 2.676,0.949 5.508,1.425 8.515,1.425 2.793,0 5.996,-0.418 9.629,-1.269 3.633,-0.84 6.914,-1.992 9.844,-3.457 l 0.664,-17.266 h -3.301 c -0.957,6.047 -2.793,10.617 -5.508,13.711 -2.707,3.106 -6.855,4.649 -12.421,4.649 -1.68,0 -3.282,-0.274 -4.786,-0.821 -1.503,-0.547 -2.851,-1.367 -4.062,-2.461 -1.211,-1.101 -2.168,-2.468 -2.871,-4.109 -0.695,-1.641 -1.047,-3.566 -1.047,-5.754 0,-3.203 0.918,-5.73 2.754,-7.559 1.828,-1.816 4.121,-3.418 6.875,-4.765 2.746,-1.348 5.723,-2.637 8.906,-3.848 3.195,-1.211 6.164,-2.762 8.918,-4.668 2.754,-1.914 5.039,-4.344 6.875,-7.312 1.824,-2.981 2.754,-6.914 2.754,-11.828 0,-3.739 -0.578,-7.118 -1.719,-10.118 -1.133,-3.007 -2.765,-5.574 -4.883,-7.695 -2.128,-2.129 -4.726,-3.789 -7.753,-4.961 -3.047,-1.172 -6.485,-1.758 -10.293,-1.758 -4.102,0 -7.969,0.371 -11.602,1.106 -3.633,0.73 -7.062,2.011 -10.293,3.847 l -0.656,20.243" /><path
         id="path3792"
         style="fill:#706d6e;fill-opacity:1;fill-rule:nonzero;stroke:none"
         d="m 971.227,198.137 c 0,-3.008 0.066,-5.996 0.214,-8.965 0.145,-2.981 0.586,-5.637 1.329,-7.981 0.722,-2.343 1.816,-4.265 3.242,-5.769 1.426,-1.504 3.426,-2.258 5.996,-2.258 2.48,0 4.453,0.754 5.879,2.258 1.433,1.504 2.519,3.426 3.242,5.769 0.73,2.344 1.172,5 1.328,7.981 0.137,2.969 0.215,5.957 0.215,8.965 0,2.937 -0.078,5.898 -0.215,8.906 -0.156,3.008 -0.598,5.684 -1.328,8.035 -0.723,2.344 -1.809,4.258 -3.242,5.762 -1.426,1.504 -3.399,2.265 -5.879,2.265 -2.57,0 -4.57,-0.761 -5.996,-2.265 -1.426,-1.504 -2.52,-3.418 -3.242,-5.762 -0.743,-2.351 -1.184,-5.027 -1.329,-8.035 -0.148,-3.008 -0.214,-5.969 -0.214,-8.906 z m -11.661,0 c 0,3.074 0.411,6.289 1.27,9.617 0.84,3.34 2.148,6.387 3.945,9.141 1.797,2.746 4.11,5.019 6.934,6.816 2.82,1.797 6.25,2.695 10.293,2.695 3.945,0 7.344,-0.898 10.176,-2.695 2.812,-1.797 5.125,-4.07 6.921,-6.816 1.795,-2.754 3.115,-5.801 3.965,-9.141 0.84,-3.328 1.26,-6.543 1.26,-9.617 0,-3.078 -0.42,-6.301 -1.26,-9.629 -0.85,-3.332 -2.17,-6.379 -3.965,-9.133 -1.796,-2.742 -4.109,-5.02 -6.921,-6.816 -2.832,-1.797 -6.231,-2.696 -10.176,-2.696 -4.043,0 -7.481,0.879 -10.352,2.637 -2.851,1.758 -5.176,4.023 -6.972,6.77 -1.797,2.753 -3.106,5.789 -3.907,9.128 -0.82,3.34 -1.211,6.582 -1.211,9.739" /><path
         id="path3794"
         style="fill:#706d6e;fill-opacity:1;fill-rule:nonzero;stroke:none"
         d="m 1055.29,188.008 c -1.04,-3.438 -2.25,-6.317 -3.64,-8.633 -1.4,-2.305 -2.94,-4.16 -4.64,-5.547 -1.68,-1.406 -3.54,-2.402 -5.57,-3.027 -2.01,-0.625 -4.17,-0.938 -6.44,-0.938 -3.46,0 -6.59,0.754 -9.38,2.258 -2.79,1.504 -5.15,3.543 -7.06,6.102 -1.9,2.57 -3.39,5.558 -4.4,8.965 -1.04,3.417 -1.55,7.062 -1.55,10.949 0,3.953 0.57,7.644 1.7,11.054 1.14,3.407 2.73,6.395 4.75,8.965 2.02,2.567 4.43,4.578 7.22,6.043 2.8,1.465 5.88,2.207 9.26,2.207 2.29,0 4.53,-0.312 6.73,-0.937 2.22,-0.625 4.17,-1.582 5.91,-2.86 1.72,-1.281 3.1,-2.882 4.13,-4.777 1.03,-1.914 1.55,-4.121 1.55,-6.602 0,-2.207 -0.49,-3.789 -1.44,-4.734 -0.98,-0.957 -2.2,-1.437 -3.67,-1.437 -1.94,0 -3.27,0.644 -4.01,1.933 -0.74,1.281 -1.11,2.832 -1.11,4.668 v 2.649 c 0,2.929 -0.69,5.183 -2.03,6.765 -1.37,1.563 -3.36,2.364 -6,2.364 -2.35,0 -4.26,-0.665 -5.72,-1.981 -1.47,-1.32 -2.63,-3.137 -3.47,-5.449 -0.85,-2.317 -1.41,-4.981 -1.71,-8.028 -0.29,-3.039 -0.43,-6.32 -0.43,-9.843 0,-2.278 0.08,-4.824 0.28,-7.649 0.17,-2.82 0.71,-5.457 1.6,-7.918 0.88,-2.461 2.2,-4.511 3.96,-6.164 1.77,-1.648 4.24,-2.48 7.4,-2.48 2.07,0 3.87,0.351 5.42,1.054 1.54,0.696 2.91,1.7 4.09,3.028 1.18,1.308 2.19,2.89 3.03,4.726 0.84,1.836 1.64,3.926 2.37,6.27 l 2.87,-0.996" /><path
         id="path3796"
         style="fill:#706d6e;fill-opacity:1;fill-rule:nonzero;stroke:none"
         d="m 1065.48,242.246 c 0,1.973 0.59,3.672 1.76,5.059 1.17,1.386 2.76,2.09 4.73,2.09 1.91,0 3.46,-0.704 4.62,-2.09 1.18,-1.387 1.76,-3.086 1.76,-5.059 0,-1.914 -0.58,-3.555 -1.76,-4.949 -1.16,-1.399 -2.71,-2.09 -4.62,-2.09 -1.97,0 -3.56,0.691 -4.73,2.09 -1.17,1.394 -1.76,3.035 -1.76,4.949 z m -6.93,-67.762 h 7.7 v 47.293 h -7.7 v 3.301 h 18.26 v -50.594 h 7.7 v -3.3 h -25.96 v 3.3" /><path
         id="path3798"
         style="fill:#706d6e;fill-opacity:1;fill-rule:nonzero;stroke:none"
         d="m 1119.31,204.727 c -0.08,2.929 -0.19,5.566 -0.38,7.871 -0.18,2.304 -0.56,4.277 -1.1,5.879 -0.55,1.621 -1.39,2.851 -2.52,3.691 -1.15,0.84 -2.7,1.27 -4.68,1.27 -2.06,0 -3.76,-0.665 -5.12,-1.981 -1.35,-1.32 -2.42,-2.941 -3.19,-4.836 -0.76,-1.914 -1.32,-3.945 -1.64,-6.113 -0.33,-2.168 -0.5,-4.082 -0.5,-5.781 z m -19.13,-3.301 v -1.863 c 0,-3.536 0.11,-6.868 0.32,-10 0.23,-3.125 0.76,-5.891 1.6,-8.282 0.84,-2.394 2.11,-4.289 3.79,-5.695 1.69,-1.387 4.01,-2.09 6.94,-2.09 4.1,0 7.33,1.32 9.68,3.965 2.35,2.637 4.07,5.937 5.17,9.894 l 2.86,-0.988 c -1.54,-5.937 -3.9,-10.176 -7.1,-12.715 -3.19,-2.519 -7.31,-3.789 -12.37,-3.789 -3.52,0 -6.7,0.735 -9.51,2.207 -2.83,1.457 -5.2,3.457 -7.11,5.989 -1.9,2.527 -3.36,5.515 -4.4,8.972 -1.02,3.438 -1.54,7.149 -1.54,11.106 0,3.816 0.51,7.422 1.5,10.828 0.98,3.418 2.45,6.406 4.39,8.965 1.94,2.57 4.35,4.629 7.21,6.164 2.86,1.543 6.16,2.312 9.89,2.312 3.52,0 6.55,-0.586 9.08,-1.758 2.54,-1.16 4.59,-2.851 6.16,-5.039 1.58,-2.187 2.75,-4.812 3.53,-7.879 0.76,-3.066 1.15,-6.496 1.15,-10.304 h -31.24" /><path
         id="path3800"
         style="fill:#706d6e;fill-opacity:1;fill-rule:nonzero;stroke:none"
         d="m 1142.57,239.824 h 10.46 v -14.746 h 10.01 v -3.301 h -10.01 v -39.043 c 0,-2.714 0.18,-4.726 0.55,-6.054 0.36,-1.309 1.4,-1.973 3.08,-1.973 1.62,0 2.88,0.508 3.79,1.535 0.92,1.024 1.75,2.235 2.48,3.641 l 2.31,-1.551 c -1.18,-2.199 -2.67,-4.094 -4.46,-5.664 -1.8,-1.574 -4.3,-2.363 -7.52,-2.363 -2.06,0 -3.77,0.312 -5.12,0.937 -1.37,0.613 -2.46,1.473 -3.3,2.586 -0.85,1.094 -1.44,2.414 -1.76,3.957 -0.34,1.531 -0.51,3.262 -0.51,5.164 v 38.828 h -7.48 v 3.301 h 7.48 v 14.746" /><path
         id="path3802"
         style="fill:#706d6e;fill-opacity:1;fill-rule:nonzero;stroke:none"
         d="m 1192.3,200.996 c 1.03,-3.445 1.89,-6.308 2.59,-8.574 0.69,-2.285 1.26,-4.336 1.71,-6.172 h 0.21 c 0.51,1.836 1.15,3.906 1.94,6.223 0.76,2.312 1.69,5.105 2.79,8.406 l 6.93,20.898 h -6.93 v 3.301 h 17.26 v -3.301 h -6.15 l -17.05,-49.824 -1.32,-5.058 c -0.81,-3.086 -1.61,-5.899 -2.41,-8.477 -0.82,-2.559 -1.77,-4.785 -2.87,-6.648 -1.09,-1.868 -2.47,-3.313 -4.12,-4.348 -1.65,-1.024 -3.69,-1.543 -6.12,-1.543 -2.78,0 -5.09,0.793 -6.92,2.363 -1.83,1.582 -2.74,3.692 -2.74,6.328 0,1.985 0.38,3.528 1.15,4.629 0.76,1.094 1.95,1.641 3.57,1.641 1.84,0 3.07,-0.469 3.69,-1.426 0.62,-0.957 0.93,-2.051 0.93,-3.301 0,-0.371 -0.05,-0.898 -0.16,-1.59 -0.11,-0.695 -0.16,-1.23 -0.16,-1.593 0,-0.742 0.18,-1.407 0.55,-1.992 0.36,-0.575 1.17,-0.879 2.41,-0.879 0.96,0 1.83,0.226 2.65,0.664 0.8,0.449 1.55,1.25 2.24,2.422 0.71,1.171 1.4,2.753 2.09,4.726 0.7,1.984 1.45,4.512 2.27,7.598 l 1.31,5.273 -17.82,51.035 h -6.16 v 3.301 h 26.07 v -3.301 h -7.82 l 6.39,-20.781" /><path
         id="path3804"
         style="fill:#706d6e;fill-opacity:1;fill-rule:nonzero;stroke:none"
         d="m 152.742,30.4453 c -6.262,-1.25 -9.89,-2.2461 -12.461,-3.6797 -2.043,-1.2031 -3.035,-3.2343 -3.035,-5.6875 0,-3.164 1.914,-5.125 5.344,-5.125 3.558,0 7.715,1.9063 10.152,4.8633 z m 0.727,-18.332 -0.528,4.0937 c -3.628,-3.1054 -7.714,-4.8047 -11.871,-4.8047 -5.996,0 -9.492,3.6133 -9.492,9.1602 0,4.0117 1.719,7.2461 5.668,9.4219 3.434,1.8476 9.367,3.2929 15.629,4.5429 0.523,6.0157 -1.785,7.9883 -6.789,7.9883 -4.023,0 -6.598,-1.5117 -8.973,-5.1367 l -4.086,2.5586 c 3.102,5.0859 7.453,7.1289 13.254,7.1289 8.371,0 12.133,-3.6328 12.133,-11.1523 V 17.457 l 0.527,-5.3437 h -5.472" /><path
         id="path3806"
         style="fill:#706d6e;fill-opacity:1;fill-rule:nonzero;stroke:none"
         d="m 182.543,12.1133 c -1.652,-0.3203 -3.234,-0.5156 -5.207,-0.5156 -5.606,0 -7.723,2.1679 -7.723,8.8281 v 21.2305 h -5.074 v 4.6093 h 5.074 v 11.2813 h 5.539 V 46.2656 h 7.391 v -4.6093 h -7.391 V 20.6797 c 0,-2.8906 1.059,-4.1992 3.563,-4.1992 1.258,0 2.379,0.1172 3.828,0.4609 v -4.8281" /><path
         id="path3808"
         style="fill:#706d6e;fill-opacity:1;fill-rule:nonzero;stroke:none"
         d="m 219.195,12.1133 c -1.652,-0.3203 -3.234,-0.5156 -5.211,-0.5156 -5.601,0 -7.714,2.1679 -7.714,8.8281 v 21.2305 h -5.075 v 4.6093 h 5.075 v 11.2813 h 5.539 V 46.2656 h 7.386 v -4.6093 h -7.386 V 20.6797 c 0,-2.8906 1.058,-4.1992 3.562,-4.1992 1.254,0 2.371,0.1172 3.824,0.4609 v -4.8281" /><path
         id="path3810"
         style="fill:#706d6e;fill-opacity:1;fill-rule:nonzero;stroke:none"
         d="m 247.609,12.1133 v 22.1015 c 0,4.7266 -0.73,7.9688 -5.867,7.9688 -3.301,0 -6.465,-1.8555 -9.691,-5.2031 V 12.1133 h -5.606 v 47.3359 h 5.606 V 41.8516 c 4.219,3.8867 7.578,5.2148 11.207,5.2148 3.961,0 6.461,-1.125 8.105,-3.5742 1.524,-1.9727 1.785,-4.7344 1.785,-9.3555 V 12.1133 h -5.539" /><path
         id="path3812"
         style="fill:#706d6e;fill-opacity:1;fill-rule:nonzero;stroke:none"
         d="m 266.266,32.5664 h 17.402 c -0.063,5.9844 -3.164,9.9492 -8.57,9.9492 -5.407,0 -8.172,-4.4922 -8.832,-9.9492 z m 8.769,-21.2422 c -9.168,0 -14.437,6.9336 -14.437,17.8711 0,10.9492 5.996,17.8711 14.5,17.8711 9.234,0 14.105,-6.6016 14.105,-16.6211 0,-0.5273 0,-1.1914 -0.062,-2.0312 h -23.008 c 0.328,-7.5977 2.898,-12.2735 9.293,-12.2735 3.961,0 7.054,1.6485 9.363,6.0625 l 4.285,-2.3633 c -3.293,-6.2109 -8.308,-8.5156 -14.039,-8.5156" /><path
         id="path3814"
         style="fill:#706d6e;fill-opacity:1;fill-rule:nonzero;stroke:none"
         d="m 342.148,59.4492 h 6.258 V 30.6406 c 0,-12.0508 -5.34,-19.3164 -18.195,-19.3164 -12.789,0 -17.27,7.2656 -17.27,19.3164 v 28.8086 h 6.329 V 29.5195 c 0,-8.625 3.168,-12.5781 11.007,-12.5781 7.782,0 11.871,3.9531 11.871,12.5781 v 29.9297" /><path
         id="path3816"
         style="fill:#706d6e;fill-opacity:1;fill-rule:nonzero;stroke:none"
         d="m 379.59,12.1133 v 23.3515 c 0,4.6094 -1.715,6.6407 -5.668,6.6407 -3.031,0 -5.801,-1.2305 -9.692,-5.2539 V 12.1133 h -5.609 v 34.1523 h 5.344 v -4.7461 c 3.762,3.7696 7.32,5.5469 11.601,5.5469 3.629,0 6.266,-1.1914 7.786,-3.5742 1.316,-1.6992 1.843,-4.2774 1.843,-8.1055 V 12.1133 h -5.605" /><path
         id="path3818"
         style="fill:#706d6e;fill-opacity:1;fill-rule:nonzero;stroke:none"
         d="m 394.883,12.1133 v 34.1523 h 5.605 V 12.1133 Z m -0.258,40.7539 v 6.7969 h 6.191 v -6.7969 h -6.191" /><path
         id="path3820"
         style="fill:#706d6e;fill-opacity:1;fill-rule:nonzero;stroke:none"
         d="m 417.629,12.1133 -11.602,34.1523 h 6.063 l 8.437,-26.3672 h 0.133 l 8.707,26.3672 h 6 L 423.496,12.1133 h -5.867" /><path
         id="path3822"
         style="fill:#706d6e;fill-opacity:1;fill-rule:nonzero;stroke:none"
         d="m 444.066,32.5664 h 17.403 c -0.067,5.9844 -3.164,9.9492 -8.567,9.9492 -5.41,0 -8.179,-4.4922 -8.836,-9.9492 z m 8.766,-21.2422 c -9.16,0 -14.434,6.9336 -14.434,17.8711 0,10.9492 5.997,17.8711 14.504,17.8711 9.227,0 14.106,-6.6016 14.106,-16.6211 0,-0.5273 0,-1.1914 -0.063,-2.0312 h -23.007 c 0.324,-7.5977 2.898,-12.2735 9.289,-12.2735 3.957,0 7.054,1.6485 9.367,6.0625 l 4.281,-2.3633 c -3.297,-6.2109 -8.305,-8.5156 -14.043,-8.5156" /><path
         id="path3824"
         style="fill:#706d6e;fill-opacity:1;fill-rule:nonzero;stroke:none"
         d="m 474.922,12.1133 v 34.1523 h 5.344 v -6.4648 c 2.898,5.1562 6.187,7.2656 10.41,7.2656 0.394,0 0.59,0 1.058,-0.0781 v -5.5274 c -0.535,0.0586 -0.992,0.0586 -1.254,0.0586 -4.753,0 -7.98,-3.6211 -9.957,-8.2422 v -21.164 h -5.601" /><path
         id="path3826"
         style="fill:#706d6e;fill-opacity:1;fill-rule:nonzero;stroke:none"
         d="m 514.73,38.0234 c -2.167,3.3789 -4.601,4.4922 -7.972,4.4922 -3.621,0 -5.731,-1.8554 -5.731,-4.7461 0,-7.7851 19.055,-2.8398 19.055,-16.3476 0,-6.3281 -5.144,-10.0977 -12.598,-10.0977 -6.058,0 -10.019,2.3047 -13.05,6.9336 l 4.156,3.0274 c 2.5,-3.7618 4.879,-5.3321 9.027,-5.3321 4.477,0 6.918,1.961 6.918,5.1953 0,8.7696 -18.918,3.4961 -18.918,16.418 0,5.6719 4.617,9.5 11.278,9.5 5.394,0 9.293,-1.9141 11.937,-6.2695 l -4.102,-2.7735" /><path
         id="path3828"
         style="fill:#706d6e;fill-opacity:1;fill-rule:nonzero;stroke:none"
         d="m 527.398,12.1133 v 34.1523 h 5.594 V 12.1133 Z m -0.265,40.7539 v 6.7969 h 6.191 v -6.7969 h -6.191" /><path
         id="path3830"
         style="fill:#706d6e;fill-opacity:1;fill-rule:nonzero;stroke:none"
         d="m 557.387,12.1133 c -1.641,-0.3203 -3.223,-0.5156 -5.196,-0.5156 -5.605,0 -7.722,2.1679 -7.722,8.8281 v 21.2305 h -5.071 v 4.6093 h 5.071 v 11.2813 h 5.535 V 46.2656 h 7.383 v -4.6093 h -7.383 V 20.6797 c 0,-2.8906 1.055,-4.1992 3.566,-4.1992 1.258,0 2.371,0.1172 3.817,0.4609 v -4.8281" /><path
         id="path3832"
         style="fill:#706d6e;fill-opacity:1;fill-rule:nonzero;stroke:none"
         d="m 565.895,-0.00390625 c -1.778,0 -3.235,0.12500025 -4.622,0.39062525 V 5.06641 c 1.387,-0.26563 2.715,-0.40235 3.77,-0.40235 3.691,0 5.195,1.65235 6.789,6.26954 l 0.652,1.9141 -12.129,33.4179 h 6.204 l 8.632,-25.5859 h 0.125 l 8.379,25.5859 h 5.871 L 578.285,13.1797 C 574.867,3.02344 572.484,-0.00390625 565.895,-0.00390625" /><path
         id="path3834"
         style="fill:#706d6e;fill-opacity:1;fill-rule:nonzero;stroke:none"
         d="m 631.363,29.0586 c 0,7.8516 -2.843,13.3203 -8.906,13.3203 -6.066,0 -8.898,-5.4687 -8.898,-13.3203 0,-7.832 2.902,-13.0469 8.898,-13.0469 6.004,0 8.906,5.2149 8.906,13.0469 z m -23.468,0 c 0,11.3477 5.527,18.0078 14.562,18.0078 9.031,0 14.512,-6.6601 14.512,-18.0078 0,-10.9375 -5.606,-17.7344 -14.512,-17.7344 -8.898,0 -14.562,6.7969 -14.562,17.7344" /><path
         id="path3836"
         style="fill:#706d6e;fill-opacity:1;fill-rule:nonzero;stroke:none"
         d="m 646.664,12.1133 v 29.543 h -5.41 v 4.6093 h 5.41 v 4.0235 c 0,6.6015 2.559,9.9492 9.414,9.9492 1.125,0 2.246,-0.0547 3.438,-0.2617 v -4.7383 c -0.86,0.1875 -1.856,0.3242 -2.703,0.3242 -2.969,0 -4.551,-0.918 -4.551,-4.8047 v -4.4922 h 7.058 v -4.6093 h -7.058 v -29.543 h -5.598" /><path
         id="path3838"
         style="fill:#706d6e;fill-opacity:1;fill-rule:nonzero;stroke:none"
         d="m 677.445,12.1133 v 5.4805 l 23.926,36.3281 h -22.078 v 5.5273 h 29.793 V 54.1758 L 684.887,17.6523 h 24.531 v -5.539 h -31.973" /><path
         id="path3840"
         style="fill:#706d6e;fill-opacity:1;fill-rule:nonzero;stroke:none"
         d="m 738.227,12.1133 v 4.7578 c -3.692,-3.6914 -7.254,-5.5469 -11.543,-5.5469 -3.555,0 -6.258,1.2617 -7.774,3.5547 -1.316,1.7852 -1.855,4.2969 -1.855,8.1836 v 23.2031 h 5.675 V 22.9258 c 0,-4.6094 1.649,-6.582 5.606,-6.582 3.094,0 5.742,1.25 9.617,5.1953 v 24.7265 h 5.606 V 12.1133 h -5.332" /><path
         id="path3842"
         style="fill:#706d6e;fill-opacity:1;fill-rule:nonzero;stroke:none"
         d="m 753.715,12.1133 v 34.1523 h 5.344 v -6.4648 c 2.898,5.1562 6.199,7.2656 10.418,7.2656 0.39,0 0.586,0 1.054,-0.0781 v -5.5274 c -0.527,0.0586 -0.996,0.0586 -1.25,0.0586 -4.746,0 -7.988,-3.6211 -9.961,-8.2422 v -21.164 h -5.605" /><path
         id="path3844"
         style="fill:#706d6e;fill-opacity:1;fill-rule:nonzero;stroke:none"
         d="m 776.527,12.1133 v 34.1523 h 5.606 V 12.1133 Z m -0.254,40.7539 v 6.7969 h 6.192 v -6.7969 h -6.192" /><path
         id="path3846"
         style="fill:#706d6e;fill-opacity:1;fill-rule:nonzero;stroke:none"
         d="m 818.793,20.1602 c -3.164,-5.9844 -7.793,-8.836 -14.109,-8.836 -9.231,0 -14.778,6.8555 -14.778,17.7344 0,11.3477 5.742,18.0078 14.973,18.0078 6.336,0 10.945,-2.7734 13.25,-9.2969 l -4.746,-1.8554 c -1.844,4.414 -4.414,6.3476 -8.379,6.3476 -5.801,0 -9.551,-4.8828 -9.551,-13.2031 0,-8.4375 3.555,-12.918 9.492,-12.918 4.024,0 6.856,1.9024 9.297,6.5313 l 4.551,-2.5117" /><path
         id="path3848"
         style="fill:#706d6e;fill-opacity:1;fill-rule:nonzero;stroke:none"
         d="m 847.133,12.1133 v 22.1015 c 0,4.7266 -0.723,7.9688 -5.86,7.9688 -3.3,0 -6.464,-1.8555 -9.695,-5.2031 V 12.1133 h -5.598 v 47.3359 h 5.598 V 41.8516 c 4.219,3.8867 7.586,5.2148 11.211,5.2148 3.953,0 6.453,-1.125 8.113,-3.5742 1.504,-1.9727 1.778,-4.7344 1.778,-9.3555 V 12.1133 h -5.547" /><path
         id="path3850"
         style="fill:#706d6e;fill-opacity:1;fill-rule:nonzero;stroke:none"
         d="m 210.727,174.211 h 7.812 v 47.293 h -7.812 v 3.301 h 18.054 v -11.11 h 0.207 c 0.961,3.524 2.422,6.477 4.41,8.856 1.977,2.383 4.653,3.578 8.032,3.578 3.078,0 5.332,-0.863 6.758,-2.582 1.425,-1.731 2.148,-4.199 2.148,-7.422 0,-1.988 -0.43,-3.68 -1.262,-5.07 -0.847,-1.395 -2.25,-2.082 -4.246,-2.082 -1.754,0 -2.949,0.531 -3.574,1.59 -0.613,1.066 -0.93,2.363 -0.93,3.902 0,1.023 0.051,1.875 0.168,2.531 0.121,0.66 0.168,1.395 0.168,2.199 0,0.739 -0.129,1.36 -0.39,1.871 -0.254,0.516 -0.86,0.778 -1.809,0.778 -1.25,0 -2.461,-0.754 -3.633,-2.254 -1.172,-1.504 -2.207,-3.418 -3.086,-5.727 -0.879,-2.308 -1.601,-4.914 -2.148,-7.812 -0.547,-2.895 -0.813,-5.699 -0.813,-8.414 v -23.426 h 7.688 v -3.309 h -25.742 v 3.309" /></g></g></svg>